# xmcd
#
# Track frame offsets:
#	150
#	11697
#	26935
#	42650
#	56397
#	78120
#	96427
#	111925
#	126555
#	141447
#	157875
#	173627
#	191275
#	205312
#	221820
#	239410
#	254515
#
# Disc length: 3548 seconds
#
# Revision: 2
# Processed by: cddbd v1.4PL0 Copyright (c) Steve Scherf et al.
# Submitted via: audiograbber 1.81.02
#
DISCID=fa0dda11
DTITLE=Various Country - New Country 4
DYEAR=1900
DGENRE=
TTITLE0=Bryan White - So Much For Pretending
TTITLE1=Paul Brandt - My Heart Has A History
TTITLE2=Kevin SHarp - Nobody Knows
TTITLE3=Terri Clark - When Boys Meets Girl
TTITLE4=Dwight Yoakam - Fast As You
TTITLE5=Faith Hill - I Can't Do That Anymore
TTITLE6=Travis Tritt - More Than You'll Ever Know
TTITLE7=Chris Cummings - Sure Enough
TTITLE8=Neal McCoy - Then You Can Tell Me Goodbye
TTITLE9=Patricia Conroy - Keep Me Rockin'
TTITLE10=Daryle Singletary - Amen Kind Of Love
TTITLE11=John Michael Montgonery - Friends
TTITLE12=Shirley Myers - Let It Rain
TTITLE13=Clay Walker - Hypnotize The Moon
TTITLE14=Dwight Yoakam - Nothing
TTITLE15=Tracy Lawrence - Is That A Tear
TTITLE16=Bill Engvall w/ Travis Tritt - Here's Your Sign (Get The Picture) (Rad
TTITLE16=io Version)
EXTD=
EXTT0=Bryan White
EXTT1=Paul Brandt
EXTT2=Kevin Sharp
EXTT3=Terri Clark
EXTT4=Dwight Yoakam
EXTT5=Faith Hill
EXTT6=Travis Tritt
EXTT7=Chris Cummings
EXTT8=Neal McCoy
EXTT9=Patricia Controy
EXTT10=Daryle Singletary
EXTT11=John Michael Montgomery
EXTT12=Shirley Myers
EXTT13=Clay Walker
EXTT14=Dwight Yoakam
EXTT15=Tracy Lawrence
EXTT16=Bill Engvall with Travis Tritt
PLAYORDER=
